<svg width="20" height="20" viewBox="0 0 20 20" fill="none" xmlns="http://www.w3.org/2000/svg">
<path fill-rule="evenodd" clip-rule="evenodd" d="M10.9938 0C11.5461 0 11.9938 0.447715 11.9938 1C11.9938 1.51284 11.6078 1.93551 11.1104 1.99327L10.9938 2H4.84583C3.77757 2 3.39726 2.07344 3.00633 2.28251C2.69171 2.45077 2.45077 2.69171 2.28251 3.00633C2.10331 3.34141 2.02375 3.66869 2.00468 4.42808L2 4.84583V15.1542C2 16.2224 2.07344 16.6027 2.28251 16.9937C2.45077 17.3083 2.69171 17.5492 3.00633 17.7175C3.34141 17.8967 3.66869 17.9762 4.42808 17.9953L4.84583 18H15.1542L15.5719 17.9953C16.3313 17.9762 16.6586 17.8967 16.9937 17.7175C17.3083 17.5492 17.5492 17.3083 17.7175 16.9937C17.8967 16.6586 17.9762 16.3313 17.9953 15.5719L18 15.1542V9.02229C18 8.47001 18.4477 8.02229 19 8.02229C19.5128 8.02229 19.9355 8.40833 19.9933 8.90567L20 9.02229V15.1542C20 16.5244 19.8663 17.2166 19.4811 17.9369C19.1265 18.6 18.6 19.1265 17.9369 19.4811C17.2646 19.8406 16.6168 19.9811 15.4194 19.9982L15.1542 20H4.84583C3.47564 20 2.78342 19.8663 2.06313 19.4811C1.39998 19.1265 0.873546 18.6 0.518886 17.9369C0.159355 17.2646 0.0189412 16.6168 0.00181723 15.4194L0 4.84583C0 3.47564 0.133674 2.78342 0.518886 2.06313C0.873546 1.39998 1.39998 0.873546 2.06313 0.518886C2.7354 0.159355 3.38322 0.0189412 4.58062 0.00181723L10.9938 0ZM14.9485 7.20953C15.3515 7.52179 15.4504 8.08102 15.1971 8.50858L15.1265 8.6125L12.1975 12.3925C11.8838 12.7973 11.3214 12.895 10.8935 12.6382L10.7895 12.5666L8.169 10.509L5.79248 13.5989C5.48155 14.0029 4.92265 14.1036 4.49426 13.8518L4.3901 13.7815C3.98609 13.4706 3.88537 12.9117 4.13719 12.4833L4.20752 12.3791L7.20052 8.49011C7.51356 8.08336 8.07739 7.98443 8.50628 8.24166L8.61047 8.31342L11.232 10.372L13.5455 7.3875C13.8838 6.95093 14.512 6.87126 14.9485 7.20953ZM17 0C18.6574 0 20 1.34262 20 3C20 4.65662 18.6571 6 17 6C15.3429 6 14 4.65662 14 3C14 1.34262 15.3426 0 17 0ZM17 2C16.4472 2 16 2.44719 16 3C16 3.55221 16.4476 4 17 4C17.5524 4 18 3.55221 18 3C18 2.44719 17.5528 2 17 2Z" fill="#808080"/>
</svg>
