<svg width="24" height="24" viewBox="0 0 24 24" fill="none" xmlns="http://www.w3.org/2000/svg">
<path fill-rule="evenodd" clip-rule="evenodd" d="M7.32005 5.9168C6.92776 5.61177 6.36053 5.6395 6.00005 5.99999C5.60952 6.39051 5.60952 7.02367 6.00005 7.4142L10.5858 12L6.00005 16.5858L5.91686 16.68C5.61183 17.0723 5.63956 17.6395 6.00005 18C6.39057 18.3905 7.02374 18.3905 7.41426 18L12 13.4142L16.5858 18L16.68 18.0832C17.0723 18.3882 17.6396 18.3605 18 18C18.3906 17.6095 18.3906 16.9763 18 16.5858L13.4143 12L18 7.4142L18.0832 7.31999C18.3883 6.9277 18.3605 6.36047 18 5.99999C17.6095 5.60946 16.9764 5.60946 16.5858 5.99999L12 10.5858L7.41426 5.99999L7.32005 5.9168Z" fill="#808080"/>
</svg>
