<svg width="22" height="22" viewBox="0 0 22 22" fill="none" xmlns="http://www.w3.org/2000/svg">
<path fill-rule="evenodd" clip-rule="evenodd" d="M5.42466 5.83901C6.54148 2.44791 9.73478 0 13.4998 0C18.1942 0 21.9998 3.80558 21.9998 8.5C21.9998 12.2682 19.5479 15.4636 16.1524 16.5779C16.5465 15.7911 16.8146 14.9304 16.9305 14.022C18.7733 12.8747 19.9998 10.8306 19.9998 8.5C19.9998 4.91015 17.0897 2 13.4998 2C11.1717 2 9.1294 3.22401 7.98143 5.06361C7.07287 5.1785 6.21181 5.44577 5.42466 5.83901Z" fill="#808080"/>
<path fill-rule="evenodd" clip-rule="evenodd" d="M8.5 22C13.1944 22 17 18.1944 17 13.5C17 8.80558 13.1944 5 8.5 5C3.80558 5 0 8.80558 0 13.5C0 18.1944 3.80558 22 8.5 22ZM8.5 20C12.0899 20 15 17.0899 15 13.5C15 9.91015 12.0899 7 8.5 7C4.91015 7 2 9.91015 2 13.5C2 17.0899 4.91015 20 8.5 20Z" fill="#808080"/>
<path fill-rule="evenodd" clip-rule="evenodd" d="M7.75 9.45294C7.30028 9.50059 6.83959 9.60409 6.43601 9.81335C6.10479 9.9851 5.79748 10.2355 5.57675 10.5929C5.35547 10.9511 5.25 11.3703 5.25 11.8333C5.25 12.2964 5.35547 12.7156 5.57675 13.0738C5.79748 13.4312 6.10479 13.6816 6.43601 13.8533C6.83959 14.0626 7.30028 14.1661 7.75 14.2137V15.9553C7.25507 15.7932 6.81008 15.5012 6.55747 15.2205L5.44253 16.2239C5.93826 16.7748 6.79584 17.3096 7.75 17.5052V18.5H9.25V17.5471C9.69972 17.4994 10.1604 17.3959 10.564 17.1866C10.8952 17.0149 11.2025 16.7645 11.4233 16.4071C11.6445 16.0489 11.75 15.6297 11.75 15.1667C11.75 14.7064 11.6473 14.2885 11.4292 13.9303C11.2112 13.5722 10.9062 13.3205 10.5751 13.1476C10.1699 12.9361 9.70555 12.8325 9.25 12.7853V11.0447C9.74493 11.2068 10.1899 11.4988 10.4425 11.7795L11.5575 10.7761C11.0617 10.2252 10.2042 9.69041 9.25 9.49479V8.5H7.75V9.45294ZM9.25 14.2965V16.0353C9.5018 15.9981 9.71204 15.9387 9.87351 15.855C10.011 15.7837 10.0944 15.7042 10.1471 15.6189C10.1992 15.5344 10.25 15.3981 10.25 15.1667C10.25 14.9325 10.1995 14.7949 10.148 14.7104C10.0965 14.6257 10.0155 14.5476 9.88099 14.4774C9.71982 14.3933 9.50771 14.3336 9.25 14.2965ZM7.75 12.702V10.9647C7.4982 11.0019 7.28796 11.0613 7.12649 11.145C6.98896 11.2163 6.90565 11.2958 6.85294 11.3811C6.80078 11.4656 6.75 11.6019 6.75 11.8333C6.75 12.0648 6.80078 12.2011 6.85294 12.2856C6.90565 12.3709 6.98896 12.4504 7.12649 12.5217C7.28796 12.6054 7.4982 12.6648 7.75 12.702Z" fill="#808080"/>
</svg>
