<svg width="24" height="24" viewBox="0 0 24 24" fill="none" xmlns="http://www.w3.org/2000/svg">
<path d="M16 5.5C16 6.32843 15.3284 7 14.5 7C13.6716 7 13 6.32843 13 5.5C13 4.67157 13.6716 4 14.5 4C15.3284 4 16 4.67157 16 5.5Z" fill="#808080"/>
<path fill-rule="evenodd" clip-rule="evenodd" d="M10.2071 4.79289C10.5976 5.18342 10.5976 5.81658 10.2071 6.20711L7.20711 9.20711C6.81658 9.59763 6.18342 9.59763 5.79289 9.20711C5.40237 8.81658 5.40237 8.18342 5.79289 7.79289L8.79289 4.79289C9.18342 4.40237 9.81658 4.40237 10.2071 4.79289ZM11.2929 7.29289C11.6834 6.90237 12.3166 6.90237 12.7071 7.29289L14.5924 9.17815L16.4472 10.1056C16.9412 10.3526 17.1414 10.9532 16.8944 11.4472C16.6474 11.9412 16.0468 12.1414 15.5528 11.8944L13.5528 10.8944C13.4567 10.8464 13.3689 10.7831 13.2929 10.7071L12 9.41421L10.5696 10.8446L12.5547 12.1679C12.8329 12.3534 13 12.6656 13 13V17C13 17.5523 12.5523 18 12 18C11.4477 18 11 17.5523 11 17V13.5352L8.4453 11.8321C8.19602 11.6659 8.03439 11.3967 8.00487 11.0985C7.97535 10.8004 8.08105 10.5047 8.29289 10.2929L11.2929 7.29289Z" fill="#808080"/>
<path fill-rule="evenodd" clip-rule="evenodd" d="M6 15C4.89543 15 4 15.8954 4 17C4 18.1046 4.89543 19 6 19C7.10457 19 8 18.1046 8 17C8 15.8954 7.10457 15 6 15ZM2 17C2 14.7909 3.79086 13 6 13C8.20914 13 10 14.7909 10 17C10 19.2091 8.20914 21 6 21C3.79086 21 2 19.2091 2 17Z" fill="#808080"/>
<path fill-rule="evenodd" clip-rule="evenodd" d="M18 15C16.8954 15 16 15.8954 16 17C16 18.1046 16.8954 19 18 19C19.1046 19 20 18.1046 20 17C20 15.8954 19.1046 15 18 15ZM14 17C14 14.7909 15.7909 13 18 13C20.2091 13 22 14.7909 22 17C22 19.2091 20.2091 21 18 21C15.7909 21 14 19.2091 14 17Z" fill="#808080"/>
</svg>
