<svg width="19" height="21" viewBox="0 0 19 21" fill="none" xmlns="http://www.w3.org/2000/svg">
<path fill-rule="evenodd" clip-rule="evenodd" d="M4.00001 5C4.00001 2.23858 6.23858 0 9.00001 0C11.7614 0 14 2.23858 14 5C14 7.76142 11.7614 10 9.00001 10C6.23858 10 4.00001 7.76142 4.00001 5ZM9.00001 2C7.34315 2 6.00001 3.34315 6.00001 5C6.00001 6.65685 7.34315 8 9.00001 8C10.6569 8 12 6.65685 12 5C12 3.34315 10.6569 2 9.00001 2Z" fill="#808080"/>
<path fill-rule="evenodd" clip-rule="evenodd" d="M14.5 12.1C14.8545 12.1 15.176 12.3081 15.3211 12.6315L16.0808 14.3242L17.9255 14.5237C18.2779 14.5618 18.5751 14.8032 18.6847 15.1403C18.7942 15.4775 18.6956 15.8475 18.4329 16.0855L17.0578 17.3311L17.4381 19.1471C17.5108 19.494 17.373 19.8513 17.0863 20.0597C16.7995 20.268 16.4171 20.2886 16.1096 20.1123L14.5 19.1894L12.8904 20.1123C12.5829 20.2886 12.2005 20.268 11.9138 20.0597C11.627 19.8513 11.4892 19.494 11.5619 19.1471L11.9422 17.3311L10.5671 16.0855C10.3044 15.8475 10.2058 15.4775 10.3154 15.1403C10.4249 14.8032 10.7221 14.5618 11.0746 14.5237L12.9192 14.3242L13.6789 12.6315C13.8241 12.3081 14.1455 12.1 14.5 12.1ZM14.5 15.198L14.3501 15.532C14.2192 15.8236 13.9435 16.0239 13.6257 16.0583L13.2617 16.0976L13.5331 16.3435C13.77 16.558 13.8753 16.8822 13.8098 17.195L13.7347 17.5534L14.0523 17.3712C14.3296 17.2123 14.6704 17.2123 14.9477 17.3712L15.2653 17.5534L15.1903 17.195C15.1248 16.8822 15.2301 16.558 15.4669 16.3435L15.7383 16.0976L15.3743 16.0583C15.0565 16.0239 14.7808 15.8236 14.6499 15.532L14.5 15.198Z" fill="#808080"/>
<path d="M8.00001 12L7.80044 12C6.13143 11.9995 5.05205 11.9992 4.1459 12.2937C2.31928 12.8872 0.887174 14.3193 0.293667 16.1459L0.264585 16.235C0.161418 16.5502 0.0748887 16.8145 0.0354456 17.2135C-6.68056e-05 17.5728 -4.11739e-05 18.0643 3.05277e-06 18.9081L6.15221e-06 19C6.15221e-06 19.5523 0.447721 20 1.00001 20C1.55229 20 2.00001 19.5523 2.00001 19C2.00001 18.039 2.00135 17.6571 2.02575 17.4103C2.04325 17.2332 2.0654 17.1651 2.18371 16.8011L2.19578 16.7639C2.59145 15.5462 3.54619 14.5914 4.76394 14.1958C5.3285 14.0123 6.06089 14 8.00001 14C8.55229 14 9.00001 13.5523 9.00001 13C9.00001 12.4477 8.55229 12 8.00001 12Z" fill="#808080"/>
</svg>
