<svg width="40" height="40" viewBox="0 0 40 40" fill="none" xmlns="http://www.w3.org/2000/svg">
<rect width="40" height="40" rx="4" fill="#FF6600"/>
<path d="M28.4744 23.081C28.4744 23.5291 28.1118 23.8916 27.6637 23.8916C27.2155 23.8916 26.8505 23.5291 26.8505 23.081V11.8524L20.8107 18.2144V29.2441L23.7815 26.1122C23.93 25.9561 24.134 25.8655 24.3505 25.8579C24.5695 25.8529 24.7734 25.9334 24.9321 26.082C25.0881 26.2305 25.1788 26.4319 25.1838 26.6484C25.1914 26.865 25.1133 27.0714 24.9623 27.23L20.5892 31.8398C20.5866 31.8423 20.5816 31.8423 20.5816 31.8448C20.5564 31.87 20.5287 31.8926 20.501 31.9128C20.4859 31.9254 20.4733 31.938 20.4608 31.948C20.4205 31.9757 20.3777 31.9984 20.3349 32.0185C20.3298 32.0185 20.3273 32.0236 20.3223 32.0261C20.2241 32.0689 20.1158 32.0941 20.0025 32.0941C19.8893 32.0941 19.781 32.0689 19.6828 32.0286C19.6753 32.0236 19.6652 32.0185 19.6576 32.0135C19.6199 31.9959 19.5796 31.9757 19.5443 31.9506C19.5292 31.938 19.5141 31.9254 19.499 31.9128C19.4713 31.8901 19.4436 31.87 19.421 31.8448C19.4185 31.8423 19.4159 31.8398 19.4109 31.8398L15.0428 27.235C14.8943 27.079 14.8137 26.87 14.8188 26.656C14.8238 26.4395 14.9169 26.2355 15.073 26.087C15.2291 25.9385 15.428 25.8529 15.6496 25.8655C15.8686 25.8705 16.07 25.9586 16.2186 26.1197L19.1843 29.2466V18.2169L13.1496 11.8498V23.0784C13.1496 23.5266 12.7845 23.8891 12.3364 23.8891C11.8882 23.8891 11.5232 23.5266 11.5232 23.0784V9.81309C11.5232 9.48076 11.7221 9.18369 12.0343 9.0578C12.3465 8.93696 12.6964 9.01249 12.923 9.25418L19.9975 16.7089L27.072 9.25418C27.2986 9.01249 27.6461 8.93444 27.9608 9.0578C28.2729 9.18369 28.4718 9.48076 28.4718 9.81309L28.4744 23.081Z" fill="white"/>
</svg>
