<svg width="18" height="22" viewBox="0 0 18 22" fill="none" xmlns="http://www.w3.org/2000/svg">
<path fill-rule="evenodd" clip-rule="evenodd" d="M4.05028 2.05025C5.36304 0.737498 7.14351 0 9.00003 0C10.8565 0 12.637 0.737498 13.9498 2.05025C15.2625 3.36301 16 5.14349 16 7C16 10.4057 16.4866 12.5369 16.9398 13.7833C17.1664 14.4063 17.3853 14.8102 17.533 15.0441C17.607 15.1612 17.6635 15.2364 17.695 15.2757C17.7088 15.293 17.7178 15.3034 17.7214 15.3074C17.9959 15.5933 18.0761 16.0153 17.9239 16.3827C17.7691 16.7564 17.4045 17 17 17H1.00003C0.595567 17 0.230931 16.7564 0.0761496 16.3827C-0.0760329 16.0153 0.00411972 15.5933 0.278688 15.3074C0.282241 15.3034 0.291261 15.293 0.305098 15.2757C0.336514 15.2364 0.393074 15.1612 0.46704 15.0441C0.614756 14.8102 0.833681 14.4063 1.06024 13.7833C1.51345 12.5369 2.00003 10.4057 2.00003 7C2.00003 5.14348 2.73753 3.36301 4.05028 2.05025ZM0.290497 15.2953C0.290651 15.2952 0.290805 15.295 0.290959 15.2949L0.2906 15.2952L0.290497 15.2953ZM15.2698 15C15.2002 14.8359 15.1299 14.6584 15.0602 14.4667C14.5135 12.9631 14 10.5943 14 7C14 5.67392 13.4732 4.40215 12.5356 3.46447C11.5979 2.52678 10.3261 2 9.00003 2C7.67395 2 6.40218 2.52678 5.4645 3.46447C4.52681 4.40215 4.00003 5.67392 4.00003 7C4.00003 10.5943 3.48661 12.9631 2.93982 14.4667C2.87011 14.6584 2.79991 14.8359 2.73022 15H15.2698ZM0.291749 15.2941C0.291745 15.2941 0.291741 15.2941 0.291738 15.2941L0.291354 15.2945C0.291486 15.2943 0.291617 15.2942 0.291749 15.2941ZM6.76826 19.135C7.24598 18.8579 7.85791 19.0205 8.13503 19.4982C8.22294 19.6498 8.34911 19.7756 8.50092 19.863C8.65272 19.9504 8.82484 19.9965 9.00003 19.9965C9.17522 19.9965 9.34733 19.9504 9.49914 19.863C9.65095 19.7756 9.77712 19.6498 9.86503 19.4982C10.1421 19.0205 10.7541 18.8579 11.2318 19.135C11.7095 19.4121 11.8722 20.024 11.595 20.5018C11.3313 20.9564 10.9528 21.3337 10.4974 21.5961C10.0419 21.8584 9.5256 21.9965 9.00003 21.9965C8.47446 21.9965 7.95812 21.8584 7.50269 21.5961C7.04726 21.3337 6.66874 20.9564 6.40503 20.5018C6.12791 20.024 6.29053 19.4121 6.76826 19.135Z" fill="#808080"/>
</svg>
