<svg width="22" height="18" viewBox="0 0 22 18" fill="none" xmlns="http://www.w3.org/2000/svg">
<path d="M14.5355 5.46447C14.145 5.07395 13.5118 5.07395 13.1213 5.46447L7.46447 11.1213C7.07394 11.5118 7.07394 12.145 7.46447 12.5355C7.85499 12.9261 8.48815 12.9261 8.87868 12.5355L14.5355 6.87868C14.9261 6.48816 14.9261 5.85499 14.5355 5.46447Z" fill="#808080"/>
<path d="M9 6C9 6.55229 8.55229 7 8 7C7.44772 7 7 6.55229 7 6C7 5.44772 7.44772 5 8 5C8.55229 5 9 5.44772 9 6Z" fill="#808080"/>
<path d="M14 13C14.5523 13 15 12.5523 15 12C15 11.4477 14.5523 11 14 11C13.4477 11 13 11.4477 13 12C13 12.5523 13.4477 13 14 13Z" fill="#808080"/>
<path fill-rule="evenodd" clip-rule="evenodd" d="M16.2413 3.91632e-07H5.7587C4.95375 -1.15675e-05 4.28936 -2.1439e-05 3.74818 0.0441953C3.18608 0.0901205 2.66938 0.188685 2.18404 0.435976C1.43139 0.819469 0.819469 1.43139 0.435976 2.18404C0.188685 2.66938 0.0901205 3.18608 0.0441953 3.74818C-2.1439e-05 4.28936 -1.15675e-05 4.95371 3.91632e-07 5.75867V7C3.91632e-07 7.55229 0.447717 8 1 8H1.5C2.05229 8 2.5 8.44772 2.5 9C2.5 9.55229 2.05229 10 1.5 10H1C0.447717 10 3.91632e-07 10.4477 3.91632e-07 11V12.2413C-1.15675e-05 13.0463 -2.1439e-05 13.7106 0.0441953 14.2518C0.0901205 14.8139 0.188685 15.3306 0.435976 15.816C0.819469 16.5686 1.43139 17.1805 2.18404 17.564C2.66938 17.8113 3.18608 17.9099 3.74818 17.9558C4.28937 18 4.95372 18 5.75868 18H16.2413C17.0463 18 17.7106 18 18.2518 17.9558C18.8139 17.9099 19.3306 17.8113 19.816 17.564C20.5686 17.1805 21.1805 16.5686 21.564 15.816C21.8113 15.3306 21.9099 14.8139 21.9558 14.2518C22 13.7106 22 13.0463 22 12.2413V11C22 10.4477 21.5523 10 21 10H20.5C19.9477 10 19.5 9.55229 19.5 9C19.5 8.44772 19.9477 8 20.5 8H21C21.5523 8 22 7.55229 22 7V5.75868C22 4.95372 22 4.28937 21.9558 3.74818C21.9099 3.18608 21.8113 2.66938 21.564 2.18404C21.1805 1.43139 20.5686 0.819469 19.816 0.435976C19.3306 0.188685 18.8139 0.0901205 18.2518 0.0441953C17.7106 -2.1439e-05 17.0463 -1.15675e-05 16.2413 3.91632e-07ZM3.09202 2.21799C3.24842 2.1383 3.47262 2.07337 3.91104 2.03755C4.36113 2.00078 4.94342 2 5.8 2H16.2C17.0566 2 17.6389 2.00078 18.089 2.03755C18.5274 2.07337 18.7516 2.1383 18.908 2.21799C19.2843 2.40974 19.5903 2.7157 19.782 3.09202C19.8617 3.24842 19.9266 3.47262 19.9624 3.91104C19.9992 4.36113 20 4.94342 20 5.8V6.04148C18.5811 6.27952 17.5 7.5135 17.5 9C17.5 10.4865 18.5811 11.7205 20 11.9585V12.2C20 13.0566 19.9992 13.6389 19.9624 14.089C19.9266 14.5274 19.8617 14.7516 19.782 14.908C19.5903 15.2843 19.2843 15.5903 18.908 15.782C18.7516 15.8617 18.5274 15.9266 18.089 15.9624C17.6389 15.9992 17.0566 16 16.2 16H5.8C4.94342 16 4.36113 15.9992 3.91104 15.9624C3.47262 15.9266 3.24842 15.8617 3.09202 15.782C2.7157 15.5903 2.40973 15.2843 2.21799 14.908C2.1383 14.7516 2.07337 14.5274 2.03755 14.089C2.00078 13.6389 2 13.0566 2 12.2V11.9585C3.41886 11.7205 4.5 10.4865 4.5 9C4.5 7.5135 3.41886 6.27952 2 6.04148V5.8C2 4.94342 2.00078 4.36113 2.03755 3.91104C2.07337 3.47262 2.1383 3.24842 2.21799 3.09202C2.40974 2.7157 2.7157 2.40974 3.09202 2.21799Z" fill="#808080"/>
</svg>
