<svg width="16" height="16" viewBox="0 0 16 16" fill="none" xmlns="http://www.w3.org/2000/svg">
<path fill-rule="evenodd" clip-rule="evenodd" d="M7.33334 1.25C3.9736 1.25 1.25 3.9736 1.25 7.33333C1.25 10.6931 3.9736 13.4167 7.33334 13.4167C8.7429 13.4167 10.0405 12.9373 11.072 12.1326L13.4697 14.5303L13.5538 14.6029C13.8474 14.8208 14.2641 14.7966 14.5303 14.5303C14.8232 14.2374 14.8232 13.7626 14.5303 13.4697L12.1326 11.0719C12.9373 10.0405 13.4167 8.74289 13.4167 7.33333C13.4167 3.9736 10.6931 1.25 7.33334 1.25ZM10.6384 10.5088C11.4301 9.68502 11.9167 8.566 11.9167 7.33333C11.9167 4.80203 9.86465 2.75 7.33334 2.75C4.80203 2.75 2.75 4.80203 2.75 7.33333C2.75 9.86464 4.80203 11.9167 7.33334 11.9167C8.56601 11.9167 9.68502 11.4301 10.5088 10.6384C10.5274 10.6146 10.5477 10.5916 10.5697 10.5697C10.5916 10.5477 10.6146 10.5274 10.6384 10.5088Z" fill="#808080"/>
</svg>
