<svg width="24" height="24" viewBox="0 0 24 24" fill="none" xmlns="http://www.w3.org/2000/svg">
<path fill-rule="evenodd" clip-rule="evenodd" d="M13.1922 1H10.8042C10.0035 1 9.23436 1.31222 8.66617 1.86988C8.09337 2.43204 7.77215 3.19728 7.77607 3.99539C7.76829 4.51215 7.31096 4.95244 6.73832 4.95238C6.61762 4.95112 6.49349 4.92511 6.37752 4.87656L6.26469 4.82057C4.8047 4.0033 2.96132 4.48976 2.12296 5.91098L1.42366 7.03324C0.565724 8.48703 1.0661 10.3198 2.5195 11.1457C2.8402 11.3265 3.03247 11.6518 3.03247 12C3.03247 12.3482 2.84022 12.6735 2.52226 12.8528C1.06774 13.6747 0.565997 15.506 1.41152 16.9372L2.08537 18.0724C2.46957 18.75 3.1277 19.2601 3.90319 19.4753C4.6051 19.6702 5.35274 19.6094 6.01009 19.3081L6.20445 19.2105C6.45712 19.0666 6.74258 19.0292 7.01012 19.0992C7.27487 19.1684 7.49776 19.336 7.63043 19.5625C7.72089 19.7117 7.76472 19.8646 7.76637 20.0202C7.76631 21.6665 9.13159 23 10.8042 23H13.1926C14.8596 23 16.2224 21.6752 16.2304 20.0239C16.2292 19.7574 16.3337 19.5092 16.5233 19.3241C16.7173 19.1345 16.9843 19.0273 17.2635 19.0286C17.4233 19.033 17.5998 19.0813 17.7558 19.1683C19.1961 19.9789 21.0382 19.499 21.8814 18.0831L22.5763 16.952C22.9939 16.2522 23.107 15.4295 22.8962 14.6575C22.7101 13.9758 22.2848 13.383 21.6986 12.9825L21.5108 12.8647C21.2375 12.7101 21.068 12.4944 20.9997 12.2442C20.9322 11.9973 20.9683 11.7347 21.101 11.5122C21.1912 11.3585 21.3176 11.235 21.4716 11.1489L21.629 11.0527C22.908 10.218 23.3577 8.57657 22.675 7.22735L22.6455 7.17298C22.6283 7.13209 22.6082 7.09226 22.5855 7.05378L21.9225 5.92997C21.0842 4.5088 19.2408 4.02236 17.794 4.83214C17.5453 4.97516 17.2587 5.01437 16.9891 4.94601C16.7225 4.8784 16.4968 4.71177 16.3608 4.48522C16.2759 4.34549 16.2321 4.19252 16.2304 4.03682C16.254 3.26398 15.9405 2.47739 15.3634 1.89762C14.7911 1.32259 14.0082 0.999666 13.1922 1ZM10.8042 3H13.1926C13.4785 2.99988 13.7504 3.11204 13.9459 3.30848C14.1049 3.46827 14.2022 3.67241 14.2257 3.8878L14.2309 4.01812C14.2361 4.57356 14.3806 5.07766 14.6488 5.51921C15.0551 6.19588 15.7214 6.68784 16.4975 6.88464C17.2706 7.08069 18.0914 6.9684 18.7811 6.57152L18.8888 6.51923C19.3636 6.32175 19.9367 6.49988 20.1999 6.94619L20.832 8.02L20.8608 8.07596C21.1326 8.54105 20.9708 9.13161 20.4872 9.40795C20.0318 9.66272 19.6465 10.0389 19.3796 10.4941C18.9725 11.1765 18.8595 11.9991 19.0703 12.7711C19.2628 13.4758 19.7099 14.0831 20.3223 14.4824L20.6069 14.6577C20.7664 14.7678 20.9064 14.963 20.9669 15.1844C21.0343 15.4312 20.9981 15.6938 20.8654 15.9162L20.1702 17.048C19.8778 17.5387 19.2354 17.7061 18.7338 17.4238C18.2919 17.177 17.7986 17.0421 17.2945 17.0289C16.4699 17.0248 15.697 17.3353 15.1257 17.8934C14.5498 18.4561 14.2266 19.2234 14.2304 20.0239C14.2278 20.5541 13.7691 21 13.1926 21H10.8042C10.2643 21 9.8281 20.6091 9.77234 20.1166L9.76632 20.0096C9.76078 19.4837 9.61628 18.9796 9.34798 18.5379C8.95423 17.8655 8.29139 17.3668 7.51596 17.1642C6.74375 16.9623 5.92112 17.0701 5.22896 17.4646C4.99967 17.59 4.70892 17.6234 4.43817 17.5482C4.17042 17.4739 3.94662 17.3004 3.81504 17.0685L3.1324 15.9181C2.87967 15.4903 3.00091 14.9514 3.40679 14.6577L3.50547 14.5945C4.44793 14.0629 5.03247 13.074 5.03247 12C5.03247 10.926 4.44786 9.93697 3.50469 9.40515C3.02094 9.13027 2.85876 8.53624 3.1338 8.07L3.83311 6.94772C4.1291 6.44651 4.77189 6.27688 5.27477 6.55834C5.70659 6.8088 6.21227 6.94709 6.72806 6.95233C8.39376 6.95255 9.75186 5.64507 9.77595 4.00517C9.77479 3.7296 9.87863 3.48223 10.0671 3.29727C10.2601 3.10783 10.5257 3 10.8042 3ZM12 8C9.79088 8 8.00002 9.79086 8.00002 12C8.00002 14.2091 9.79088 16 12 16C14.2092 16 16 14.2091 16 12C16 9.79086 14.2092 8 12 8ZM12 10C13.1046 10 14 10.8954 14 12C14 13.1046 13.1046 14 12 14C10.8955 14 10 13.1046 10 12C10 10.8954 10.8955 10 12 10Z" fill="#808080"/>
</svg>
