<svg width="18" height="18" viewBox="0 0 18 18" fill="none" xmlns="http://www.w3.org/2000/svg">
<path fill-rule="evenodd" clip-rule="evenodd" d="M7 2C6.73478 2 6.48043 2.10536 6.29289 2.29289C6.10536 2.48043 6 2.73478 6 3H12C12 2.73478 11.8946 2.48043 11.7071 2.29289C11.5196 2.10536 11.2652 2 11 2H7ZM4 5V12.2C4 13.0566 4.00078 13.6389 4.03755 14.089C4.07337 14.5274 4.1383 14.7516 4.21799 14.908C4.40973 15.2843 4.7157 15.5903 5.09202 15.782C5.24842 15.8617 5.47262 15.9266 5.91104 15.9624C6.36113 15.9992 6.94342 16 7.8 16H10.2C11.0566 16 11.6389 15.9992 12.089 15.9624C12.5274 15.9266 12.7516 15.8617 12.908 15.782C13.2843 15.5903 13.5903 15.2843 13.782 14.908C13.8617 14.7516 13.9266 14.5274 13.9624 14.089C13.9992 13.6389 14 13.0566 14 12.2V5H4ZM16 5H17C17.5523 5 18 4.55228 18 4C18 3.44772 17.5523 3 17 3H14C14 2.20435 13.6839 1.44129 13.1213 0.87868C12.5587 0.31607 11.7956 0 11 0H7C6.20435 0 5.44129 0.31607 4.87868 0.87868C4.31607 1.44129 4 2.20435 4 3H1C0.447715 3 0 3.44772 0 4C0 4.55228 0.447715 5 1 5H2L2 12.2413C1.99999 13.0463 1.99998 13.7106 2.04419 14.2518C2.09012 14.8139 2.18868 15.3306 2.43597 15.816C2.81947 16.5686 3.43139 17.1805 4.18404 17.564C4.66937 17.8113 5.18608 17.9099 5.74817 17.9558C6.28936 18 6.95372 18 7.75868 18H10.2413C11.0463 18 11.7106 18 12.2518 17.9558C12.8139 17.9099 13.3306 17.8113 13.816 17.564C14.5686 17.1805 15.1805 16.5686 15.564 15.816C15.8113 15.3306 15.9099 14.8139 15.9558 14.2518C16 13.7106 16 13.0463 16 12.2413V5ZM7 7C7.55228 7 8 7.44772 8 8V13C8 13.5523 7.55228 14 7 14C6.44772 14 6 13.5523 6 13V8C6 7.44772 6.44772 7 7 7ZM11 7C11.5523 7 12 7.44772 12 8V13C12 13.5523 11.5523 14 11 14C10.4477 14 10 13.5523 10 13V8C10 7.44772 10.4477 7 11 7Z" fill="#808080"/>
</svg>
